PathFileType	4	(X/Y/Z)	 s06c0203.trc
DataRate	CameraRate	NumFrames	NumMarkers	Units	OrigDataRate	OrigDataStartFrame	OrigNumFrames
200	200	6	48	mm	200	1001	2000
Frame#	Time	racr			lacr			c7			jug			rlel			rdr			llel			ldr			s2			lic			ric			lasi			rasi			rpsi			lpsi			rgt			lgt			rth1			rth2			rth3			rth4			rlfc			rmfc			rsh1			rsh2			rsh3			rsh4			rlmal			rcal			rtoe			rmt5			lth1			lth2			lth4			lth3			llfc			lmfc			llmal			lcal			lmt5			lsh1			lsh2			lsh3			lsh4			ltoe			SBIKE			LBIKE			RBIKE			
		X1	Y1	Z1	X2	Y2	Z2	X3	Y3	Z3	X4	Y4	Z4	X5	Y5	Z5	X6	Y6	Z6	X7	Y7	Z7	X8	Y8	Z8	X9	Y9	Z9	X10	Y10	Z10	X11	Y11	Z11	X12	Y12	Z12	X13	Y13	Z13	X14	Y14	Z14	X15	Y15	Z15	X16	Y16	Z16	X17	Y17	Z17	X18	Y18	Z18	X19	Y19	Z19	X20	Y20	Z20	X21	Y21	Z21	X22	Y22	Z22	X23	Y23	Z23	X24	Y24	Z24	X25	Y25	Z25	X26	Y26	Z26	X27	Y27	Z27	X28	Y28	Z28	X29	Y29	Z29	X30	Y30	Z30	X31	Y31	Z31	X32	Y32	Z32	X33	Y33	Z33	X34	Y34	Z34	X35	Y35	Z35	X36	Y36	Z36	X37	Y37	Z37	X38	Y38	Z38	X39	Y39	Z39	X40	Y40	Z40	X41	Y41	Z41	X42	Y42	Z42	X43	Y43	Z43	X44	Y44	Z44	X45	Y45	Z45	X46	Y46	Z46	X47	Y47	Z47	X48	Y48	Z48	
1001	5.0050	576.278344	1248.060943	-78.851563	579.484135	1231.839929	-400.976274	570.279140	1342.121849	-238.898892	553.300907	1175.675966	-233.820626	504.710742	1023.246001	67.668999	662.747546	916.306519	-50.552652	469.334970	996.508772	-507.979037	651.278090	920.363471	-400.347733	21.678352	1143.719827	-210.889501	170.657146	1106.758231	-385.895946	169.763947	1110.197682	-52.709904	190.942909	1054.910846	-344.023206	195.229437	1073.336916	-92.148081	54.233330	1179.714020	-179.082582	53.233664	1177.704623	-239.252719	142.991255	1040.082026	-8.629615	140.987688	1026.842648	-404.819988	243.459365	963.480512	-10.191108	324.483277	921.718149	-17.988700	371.185347	849.332749	-19.693459	344.497263	948.077117	-36.463212	409.252834	754.149906	-44.535643	388.789715	737.457546	-155.027481	317.218719	671.640630	-23.470532	256.445065	614.313745	-47.182407	172.378554	586.495769	-47.756302	267.471638	601.888060	-83.611658	96.185112	557.927694	-50.591949	34.765857	588.086398	-98.811095	175.463175	349.823422	-92.150086	104.852405	420.615365	-24.563762	183.861553	901.074971	-419.142524	245.272958	840.284831	-409.612746	276.014480	858.749104	-399.212430	268.524533	753.613950	-399.552032	301.421931	638.192495	-381.255863	299.409520	619.334983	-269.455553	218.640651	270.185689	-376.118182	149.893611	226.292291	-328.073998	346.748117	233.143260	-402.375855	281.342528	529.920776	-404.103704	281.726303	445.042465	-384.522545	241.714187	366.237923	-385.956634	305.662504	443.858369	-353.072897	428.609075	260.141898	-343.169450	-204.396919	866.691570	-203.283156	-52.203673	83.934919	-410.504640	-50.947053	80.416666	-13.226866	
1002	5.0100	575.582326	1248.289937	-77.739260	580.005299	1233.099662	-399.273766	571.126459	1342.866336	-236.842296	552.940530	1176.617050	-232.271884	504.510209	1023.494770	68.073553	662.990902	917.387661	-50.199852	470.397779	998.546983	-507.498004	651.912227	920.859871	-400.544229	21.896645	1145.160842	-213.172599	171.473106	1107.784949	-386.264024	168.238463	1112.727023	-53.592059	192.573095	1055.603378	-345.541782	193.659389	1075.081800	-92.322153	54.232074	1180.934235	-181.357905	54.037923	1178.852986	-241.722733	142.179558	1045.262646	-9.265194	141.540049	1025.052753	-405.665976	243.779377	969.563633	-10.524577	325.881360	929.726813	-18.140362	374.349591	858.743009	-19.509957	345.378478	956.630690	-36.525174	415.303895	763.755909	-44.892786	395.685652	747.674117	-155.175001	323.329194	680.774852	-23.804029	262.432397	623.337849	-47.529914	178.466475	595.645929	-47.964026	273.589781	610.988916	-83.838924	102.289501	566.936586	-50.873024	40.344832	596.603499	-99.196575	182.647020	359.389746	-92.269246	111.230642	429.929662	-24.745685	181.225187	898.969736	-419.799621	240.695136	836.204928	-410.522428	271.946311	853.665422	-400.004549	260.791540	749.044467	-400.868336	291.272389	632.375293	-382.715115	287.684716	612.778361	-270.507487	212.462817	263.283046	-376.830907	143.295778	220.693508	-329.725421	340.754359	224.540102	-402.229895	272.397843	523.683209	-405.631203	273.445264	438.972670	-385.584870	234.202519	359.775199	-387.020343	297.426282	437.915594	-354.042232	422.693575	250.402188	-342.666861	-204.419543	866.760410	-203.360714	-52.207010	83.953441	-410.505928	-50.942419	80.164019	-13.585344	
1003	5.0150	575.072053	1248.454574	-75.933719	580.551017	1234.232177	-397.525065	571.759840	1343.488621	-234.692870	552.661413	1177.254982	-230.563521	504.146170	1023.746599	68.652631	663.252531	918.582264	-49.779344	471.349521	1000.727647	-507.010907	652.592191	921.265026	-400.471665	21.135247	1147.457260	-214.198905	172.195949	1108.539318	-386.282543	166.723457	1115.063930	-54.453253	194.039864	1056.008262	-346.712069	192.353825	1076.823347	-92.466126	54.612660	1182.233131	-184.069150	54.796532	1179.806690	-244.124985	141.684610	1050.346995	-10.351166	142.044389	1023.441510	-406.350106	244.202851	975.507399	-12.099633	327.141922	938.083895	-17.837110	377.637510	868.230226	-18.753036	346.016451	965.086776	-36.642795	421.194472	773.545313	-45.260666	402.176950	757.606042	-155.901853	329.484810	689.986197	-24.111207	268.766119	632.576802	-47.718290	184.781179	604.607932	-48.210351	280.491402	619.510985	-84.369620	108.642682	575.584542	-51.220230	46.299960	604.792493	-99.539108	190.305705	368.669636	-92.467613	118.448347	438.690641	-25.080415	178.777903	896.892816	-420.619893	236.194120	832.199591	-411.524312	267.983096	848.615060	-400.865349	253.514695	744.411778	-402.326663	281.266933	627.220264	-384.227255	276.089851	606.916723	-271.574765	205.834814	257.130869	-377.455898	136.601818	215.641135	-330.395590	334.370450	216.310180	-402.190498	263.281012	518.136195	-407.182780	264.936939	433.619906	-386.875149	226.217425	354.177866	-388.129325	289.012129	432.765898	-355.421495	416.496513	240.876431	-342.323179	-204.438792	866.813481	-203.433081	-52.225049	83.977851	-410.529076	-50.956165	80.211312	-13.585657	
1004	5.0200	574.338917	1248.456258	-74.209992	581.084930	1235.246820	-395.763019	572.141619	1343.936294	-232.512136	552.299658	1177.928687	-228.632030	503.789066	1023.942895	69.308195	663.481753	919.907855	-49.342500	472.329718	1002.784819	-506.340673	653.137024	921.514888	-400.393610	22.558111	1148.419762	-216.546788	173.052071	1108.982799	-386.039263	165.267663	1117.433191	-55.262447	196.032405	1056.758574	-348.574763	191.193972	1078.652160	-92.530738	55.122419	1183.527643	-186.904431	55.542597	1180.571471	-246.448515	140.871759	1054.854166	-11.236403	142.580796	1021.952932	-406.953701	244.432110	981.258665	-12.128389	328.273366	945.957273	-17.868094	380.664032	877.422718	-18.772479	346.374234	973.400951	-36.981455	427.023142	783.564022	-45.363457	408.554938	767.502033	-156.593883	335.642952	699.203702	-24.495017	275.146229	641.396140	-48.048696	191.405384	613.131894	-48.420641	286.947655	628.378473	-84.581051	115.046692	583.862866	-51.515753	52.503101	612.456340	-99.764276	198.471585	377.626606	-92.773653	126.129200	447.101827	-25.256219	176.408828	894.820591	-421.669544	231.758753	828.403083	-412.759172	263.998147	843.671007	-401.790683	246.297557	740.062120	-403.808021	271.642002	622.589759	-385.843425	265.116769	602.248483	-272.569562	198.856715	251.755271	-378.041902	129.592367	211.427292	-331.035258	327.579899	208.614068	-402.050874	254.200109	513.474332	-408.689639	256.305753	428.958833	-388.329563	217.975301	349.387563	-389.395734	280.565741	428.246939	-356.992033	409.938008	231.668469	-341.915680	-204.430651	866.888702	-203.553529	-52.248520	84.000896	-410.553762	-50.994725	80.595366	-13.275805	
1005	5.0250	573.718533	1248.450578	-72.259690	581.747088	1236.081653	-393.332683	572.322008	1344.170406	-230.261213	551.958912	1178.337964	-226.795003	503.366041	1023.789836	69.886338	663.676172	921.365776	-48.893332	473.238694	1004.837256	-505.820837	653.726984	921.715327	-400.151607	23.808530	1148.813676	-219.522857	174.163646	1109.109600	-385.855515	163.319821	1119.214028	-56.475899	197.391910	1056.763585	-348.705048	189.180719	1079.722090	-93.047746	55.434452	1184.507643	-189.354285	56.234460	1181.285929	-248.840710	139.913356	1058.989584	-12.144934	143.117989	1020.419216	-407.440850	244.497779	986.700356	-12.219290	329.267711	953.723340	-18.011996	383.620033	886.716941	-18.247670	346.512235	981.472839	-37.552740	432.658347	793.593945	-45.642271	415.021668	777.126205	-158.039879	341.866173	708.393718	-24.834916	281.633717	650.255454	-48.413949	198.096343	621.560826	-48.641796	293.585633	637.214912	-84.821953	121.579100	591.606977	-51.875074	58.663488	619.461682	-100.076260	207.362114	386.341611	-93.026093	134.862306	455.003735	-25.174130	174.078060	892.875759	-422.765553	227.352725	824.721721	-414.215598	260.011096	839.029775	-402.971654	238.976462	735.930385	-405.829962	262.391358	618.488925	-387.606890	254.852584	598.652389	-273.616159	191.659066	247.494051	-378.864834	122.273395	208.312540	-331.702381	320.420784	201.426340	-401.898636	245.220879	509.532816	-410.178206	247.724888	424.907657	-389.782254	209.636607	345.299384	-390.628197	272.304035	424.441222	-358.879312	403.045539	222.681055	-341.535627	-204.458719	866.935766	-203.667662	-52.248455	84.001461	-410.563554	-51.006649	80.661036	-13.266241	
1006	5.0300	572.815018	1248.334105	-70.811119	582.343115	1236.898537	-391.410208	572.316826	1344.331509	-228.001341	551.716664	1178.664681	-224.905709	502.796024	1023.789571	70.652813	663.717898	922.858385	-48.415157	474.184253	1006.677648	-505.315652	654.083865	921.926787	-399.949484	24.243602	1149.467701	-221.675227	175.606794	1109.052192	-385.792493	161.650331	1121.092949	-57.266068	198.593579	1056.533523	-348.687883	188.151418	1081.538059	-93.319291	55.615042	1185.423477	-191.737895	56.833052	1181.969110	-251.122229	139.315218	1062.587073	-13.617640	143.664146	1019.037351	-407.938986	244.548244	991.936079	-12.492596	330.137566	961.336773	-18.416049	386.565439	895.912717	-18.235213	346.517950	989.260310	-38.528255	438.134576	803.402900	-46.272954	420.972386	786.897288	-158.660965	348.067003	717.423180	-25.219591	288.271405	658.910171	-48.605822	204.827413	629.691446	-48.865312	300.344881	645.830068	-85.019468	128.289964	598.838324	-52.227007	64.863599	625.748424	-100.405802	217.521689	395.674287	-92.663593	143.382864	462.385937	-25.496111	171.689904	890.931262	-423.971390	222.970575	821.213852	-415.816566	256.050273	834.553874	-404.438229	231.832469	731.935159	-408.081336	253.667834	615.028611	-389.443358	245.603416	595.974951	-274.719526	184.582115	243.920630	-379.269899	114.720344	206.170795	-332.158563	312.900192	194.574250	-401.866649	236.598129	506.096629	-411.757738	239.332652	421.508896	-391.295652	201.315397	341.903236	-391.718918	264.192242	421.100798	-360.541495	395.886081	214.060828	-341.236893	-204.469807	866.976811	-203.732391	-52.264374	83.996406	-410.600648	-51.005286	80.651859	-13.313406	
